<svg width="472" height="360" viewBox="0 0 472 360" fill="none" xmlns="http://www.w3.org/2000/svg">
<rect y="0.5" width="472" height="359" rx="12" fill="white"/>
<path d="M26.9595 32.8711C26.1131 32.8711 25.3221 32.7669 24.5864 32.5586C23.8573 32.3503 23.2388 32.1029 22.731 31.8164L22.0571 32.5H21.2271L21.1001 27.4902H21.9399C22.1287 27.9655 22.3696 28.4668 22.6626 28.9941C22.9556 29.5215 23.2941 29.9935 23.6782 30.4102C24.0754 30.8464 24.5181 31.2012 25.0063 31.4746C25.5011 31.748 26.0773 31.8848 26.7349 31.8848C27.6203 31.8848 28.2974 31.6699 28.7661 31.2402C29.2414 30.804 29.479 30.2572 29.479 29.5996C29.479 29.0592 29.2772 28.6068 28.8735 28.2422C28.4764 27.8711 27.8579 27.5521 27.0181 27.2852C26.4712 27.1094 25.9666 26.9466 25.5044 26.7969C25.0487 26.6471 24.619 26.4941 24.2153 26.3379C23.2843 25.9668 22.591 25.4362 22.1353 24.7461C21.686 24.056 21.4614 23.2845 21.4614 22.4316C21.4614 21.8913 21.5786 21.3737 21.813 20.8789C22.0474 20.3776 22.3892 19.9284 22.8384 19.5312C23.2681 19.1602 23.8182 18.8574 24.4888 18.623C25.1593 18.3887 25.8885 18.2715 26.6763 18.2715C27.4445 18.2715 28.1639 18.3789 28.8345 18.5938C29.505 18.8021 30.0324 19.0137 30.4165 19.2285L31.0122 18.6426H31.8618L31.9399 23.3691H31.1001C30.9048 22.8613 30.6737 22.3438 30.4067 21.8164C30.1463 21.2826 29.8696 20.8398 29.5767 20.4883C29.2576 20.1107 28.8898 19.8112 28.4731 19.5898C28.0565 19.362 27.5682 19.248 27.0083 19.248C26.3052 19.248 25.729 19.4466 25.2798 19.8438C24.8371 20.2409 24.6157 20.7324 24.6157 21.3184C24.6157 21.8717 24.8078 22.3242 25.1919 22.6758C25.5825 23.0273 26.188 23.3366 27.0083 23.6035C27.4901 23.7663 27.9816 23.929 28.4829 24.0918C28.9842 24.2546 29.4302 24.4108 29.8208 24.5605C30.7648 24.9251 31.481 25.4297 31.9692 26.0742C32.464 26.7122 32.7114 27.5065 32.7114 28.457C32.7114 29.056 32.5715 29.6354 32.2915 30.1953C32.0116 30.7552 31.634 31.2207 31.1587 31.5918C30.6379 32.002 30.0356 32.3177 29.3521 32.5391C28.6685 32.7604 27.8709 32.8711 26.9595 32.8711ZM50.6604 23.5254C50.3609 23.571 50.0842 23.6719 49.8303 23.8281C49.5764 23.9779 49.3616 24.2611 49.1858 24.6777C48.7301 25.791 48.3655 26.6895 48.092 27.373C47.8186 28.0566 47.4345 29.043 46.9397 30.332C46.8355 30.599 46.7086 30.9668 46.5588 31.4355C46.4156 31.9043 46.3017 32.2884 46.217 32.5879H44.3127L41.8518 25.9473L39.5471 32.5879H37.6623C37.0048 30.8105 36.4872 29.4336 36.1096 28.457C35.732 27.474 35.2274 26.1784 34.5959 24.5703C34.4787 24.2643 34.2769 24.0234 33.9905 23.8477C33.7105 23.6719 33.4208 23.5645 33.1213 23.5254V22.8125H39.1174V23.5254C38.8961 23.5449 38.6324 23.597 38.3264 23.6816C38.0204 23.7663 37.8674 23.8802 37.8674 24.0234C37.8674 24.0885 37.8739 24.1471 37.887 24.1992C37.9065 24.2448 37.9358 24.3327 37.9748 24.4629C38.1506 24.9707 38.3915 25.6283 38.6975 26.4355C39.0035 27.2363 39.3616 28.1706 39.7717 29.2383L41.9397 22.8125H43.8733L46.344 29.4531C46.7216 28.4505 47.0113 27.6628 47.2131 27.0898C47.4215 26.5104 47.6819 25.765 47.9944 24.8535C48.0399 24.7168 48.066 24.5964 48.0725 24.4922C48.0855 24.3815 48.0888 24.3099 48.0823 24.2773C48.0823 24.1602 48.0237 24.056 47.9065 23.9648C47.7893 23.8672 47.6493 23.7891 47.4866 23.7305C47.3238 23.6719 47.1643 23.6263 47.008 23.5938C46.8583 23.5612 46.7314 23.5384 46.6272 23.5254V22.8125H50.6604V23.5254ZM62.0469 32.2949C61.7604 32.4186 61.4219 32.5326 61.0312 32.6367C60.6406 32.7409 60.2272 32.793 59.791 32.793C58.9902 32.793 58.401 32.6758 58.0234 32.4414C57.6458 32.2005 57.3886 31.8587 57.2519 31.416H57.1933C56.972 31.6374 56.7571 31.8262 56.5488 31.9824C56.347 32.1387 56.1289 32.2721 55.8945 32.3828C55.5885 32.526 55.2923 32.6302 55.0058 32.6953C54.7259 32.7669 54.332 32.8027 53.8242 32.8027C53.069 32.8027 52.4245 32.5814 51.8906 32.1387C51.3567 31.6895 51.0898 31.097 51.0898 30.3613C51.0898 29.9382 51.1484 29.5801 51.2656 29.2871C51.3828 28.9876 51.5488 28.724 51.7636 28.4961C51.959 28.2878 52.1836 28.1152 52.4375 27.9785C52.6979 27.8418 52.9811 27.7148 53.2871 27.5977C53.873 27.3828 54.5761 27.1615 55.3965 26.9336C56.2168 26.6992 56.8157 26.4909 57.1933 26.3086V25.3711C57.1933 25.2083 57.1803 24.9935 57.1543 24.7266C57.1282 24.4596 57.0729 24.235 56.9883 24.0527C56.8971 23.8444 56.7539 23.6686 56.5586 23.5254C56.3633 23.3822 56.1061 23.3105 55.7871 23.3105C55.5006 23.3105 55.2597 23.3529 55.0644 23.4375C54.8756 23.5156 54.7226 23.597 54.6054 23.6816C54.625 23.8118 54.6803 24.0104 54.7715 24.2773C54.8626 24.5443 54.9082 24.8014 54.9082 25.0488C54.9082 25.1595 54.8789 25.2995 54.8203 25.4688C54.7617 25.6315 54.6771 25.7617 54.5664 25.8594C54.4166 25.9896 54.2474 26.0905 54.0586 26.1621C53.8763 26.2337 53.5931 26.2695 53.209 26.2695C52.6621 26.2695 52.2487 26.1393 51.9687 25.8789C51.6888 25.612 51.5488 25.2669 51.5488 24.8438C51.5488 24.4792 51.692 24.1536 51.9785 23.8672C52.2715 23.5742 52.6263 23.3333 53.0429 23.1445C53.4531 22.9492 53.9251 22.7995 54.459 22.6953C54.9928 22.5846 55.4876 22.5293 55.9433 22.5293C56.5748 22.5293 57.1543 22.5684 57.6816 22.6465C58.209 22.7181 58.6842 22.8711 59.1074 23.1055C59.511 23.3333 59.8301 23.6654 60.0644 24.1016C60.3053 24.5312 60.4258 25.0944 60.4258 25.791C60.4258 26.5267 60.4095 27.3991 60.3769 28.4082C60.3509 29.4173 60.3379 30.0814 60.3379 30.4004C60.3379 30.6934 60.3802 30.9245 60.4648 31.0938C60.556 31.263 60.6927 31.39 60.875 31.4746C60.9857 31.5267 61.1582 31.5592 61.3926 31.5723C61.6334 31.5788 61.8515 31.582 62.0469 31.582V32.2949ZM57.1933 27.207C56.8288 27.3307 56.4674 27.474 56.1094 27.6367C55.7513 27.793 55.4583 27.959 55.2304 28.1348C54.9896 28.3171 54.8008 28.5514 54.664 28.8379C54.5273 29.1178 54.459 29.4499 54.459 29.834C54.459 30.3418 54.5729 30.7096 54.8008 30.9375C55.0351 31.1654 55.3216 31.2793 55.6601 31.2793C56.0182 31.2793 56.3112 31.2077 56.539 31.0645C56.7734 30.9147 56.9785 30.7324 57.1543 30.5176L57.1933 27.207ZM74.488 27.7441C74.488 29.1178 74.029 30.2962 73.111 31.2793C72.1931 32.2624 71.031 32.7539 69.6247 32.7539C68.9997 32.7539 68.4919 32.6888 68.1013 32.5586C67.7107 32.4349 67.3884 32.2819 67.1345 32.0996H67.0564V34.8438C67.0564 35.0716 67.1052 35.2702 67.2028 35.4395C67.307 35.6087 67.4502 35.7324 67.6325 35.8105C67.8083 35.8822 68.0557 35.9473 68.3747 36.0059C68.7002 36.0645 68.9704 36.1003 69.1853 36.1133V36.8359H62.1345V36.1133C62.2972 36.1003 62.5023 36.0742 62.7497 36.0352C62.9971 36.0026 63.1827 35.9668 63.3064 35.9277C63.5147 35.8561 63.6547 35.7324 63.7263 35.5566C63.8044 35.3874 63.8435 35.1921 63.8435 34.9707V24.9805C63.8239 24.7656 63.7719 24.5768 63.6872 24.4141C63.6091 24.2513 63.4821 24.1081 63.3064 23.9844C63.1762 23.8997 63.0036 23.8314 62.7888 23.7793C62.5739 23.7207 62.3624 23.6816 62.154 23.6621V22.9492L66.9099 22.6953L67.0564 22.8223V23.9062L67.1345 23.9258C67.5642 23.4896 68.0394 23.151 68.5603 22.9102C69.0876 22.6693 69.6084 22.5488 70.1228 22.5488C71.4704 22.5488 72.5349 23.0273 73.3161 23.9844C74.0974 24.9349 74.488 26.1882 74.488 27.7441ZM70.9821 27.7832C70.9821 27.2949 70.9463 26.8294 70.8747 26.3867C70.8031 25.9375 70.6762 25.5371 70.4939 25.1855C70.3181 24.834 70.0837 24.554 69.7907 24.3457C69.5043 24.1374 69.1527 24.0332 68.736 24.0332C68.3129 24.0332 67.9743 24.1081 67.7204 24.2578C67.4665 24.401 67.2452 24.5898 67.0564 24.8242V30.3613C67.0954 30.4915 67.1703 30.6608 67.281 30.8691C67.3916 31.071 67.5023 31.2337 67.613 31.3574C67.7758 31.5332 67.9613 31.6634 68.1696 31.748C68.378 31.8327 68.6058 31.875 68.8532 31.875C69.4978 31.875 70.0121 31.5299 70.3962 30.8398C70.7868 30.1432 70.9821 29.1243 70.9821 27.7832Z" fill="#1E1E1E"/>
<path opacity="0.4" d="M451.269 28.2515C451.084 27.9665 450.822 27.6815 450.482 27.501C450.21 27.368 450.036 27.1495 449.88 26.893C449.385 26.076 449.677 25.0025 450.502 24.518C451.473 23.9765 451.783 22.77 451.22 21.8295L450.57 20.7085C450.016 19.768 448.803 19.4355 447.842 19.9865C446.987 20.4425 445.89 20.1385 445.395 19.331C445.24 19.065 445.152 18.78 445.172 18.495C445.201 18.1245 445.084 17.773 444.91 17.488C444.55 16.899 443.9 16.5 443.181 16.5H441.813C441.104 16.519 440.453 16.899 440.094 17.488C439.91 17.773 439.803 18.1245 439.822 18.495C439.842 18.78 439.754 19.065 439.599 19.331C439.104 20.1385 438.007 20.4425 437.162 19.9865C436.191 19.4355 434.987 19.768 434.424 20.7085L433.774 21.8295C433.22 22.77 433.531 23.9765 434.492 24.518C435.318 25.0025 435.609 26.076 435.123 26.893C434.958 27.1495 434.784 27.368 434.512 27.501C434.182 27.6815 433.89 27.9665 433.735 28.2515C433.376 28.8405 433.395 29.5815 433.754 30.199L434.424 31.339C434.784 31.947 435.453 32.327 436.152 32.327C436.483 32.327 436.871 32.232 437.182 32.042C437.424 31.8805 437.716 31.8235 438.036 31.8235C438.997 31.8235 439.803 32.612 439.822 33.5525C439.822 34.645 440.715 35.5 441.842 35.5H443.162C444.279 35.5 445.172 34.645 445.172 33.5525C445.201 32.612 446.007 31.8235 446.968 31.8235C447.278 31.8235 447.57 31.8805 447.822 32.042C448.133 32.232 448.511 32.327 448.851 32.327C449.541 32.327 450.21 31.947 450.57 31.339L451.249 30.199C451.599 29.5625 451.628 28.8405 451.269 28.2515Z" fill="#8A92A6"/>
<path d="M442.512 28.6884C440.987 28.6884 439.754 27.5009 439.754 26.0094C439.754 24.5179 440.987 23.3209 442.512 23.3209C444.036 23.3209 445.24 24.5179 445.24 26.0094C445.24 27.5009 444.036 28.6884 442.512 28.6884Z" fill="#8A92A6"/>
<rect x="8" y="47.5" width="456" height="99" rx="12" fill="#3A06AA"/>
<rect x="26" y="64.5" width="78" height="31.6889" rx="8" fill="#252B36"/>
<path d="M57.7622 75.5227C57.6206 75.5373 57.4155 75.5715 57.147 75.6252C56.8833 75.674 56.6611 75.7619 56.4805 75.8889C56.2949 76.0109 56.1631 76.2307 56.085 76.5481C56.0117 76.8654 55.9751 77.3415 55.9751 77.9763V81.8435C55.9751 82.9812 55.5894 83.8967 54.8179 84.59C54.0464 85.2834 53.0259 85.6301 51.7563 85.6301C50.2769 85.6301 49.1318 85.2956 48.3213 84.6267C47.5107 83.9577 47.1055 83.0251 47.1055 81.8288V76.5114C47.1055 76.3405 47.0713 76.1941 47.0029 76.072C46.9395 75.9499 46.8149 75.84 46.6294 75.7424C46.5024 75.6789 46.3462 75.6276 46.1606 75.5886C45.9751 75.5495 45.8237 75.5227 45.7065 75.508V74.9514H51.1558V75.508C50.9995 75.5178 50.8408 75.5373 50.6797 75.5666C50.5186 75.591 50.355 75.6301 50.189 75.6838C50.0034 75.7424 49.8789 75.84 49.8154 75.9768C49.752 76.1135 49.7202 76.2673 49.7202 76.4382V81.6823C49.7202 82.7126 49.9473 83.4621 50.4014 83.9309C50.8555 84.3996 51.5146 84.634 52.3789 84.634C53.2285 84.634 53.895 84.3752 54.3784 83.8576C54.8618 83.34 55.1035 82.5783 55.1035 81.5725V78.0495C55.1035 77.4245 55.0596 76.9582 54.9717 76.6506C54.8887 76.3381 54.7593 76.1135 54.5835 75.9768C54.4565 75.8693 54.2344 75.7717 53.917 75.6838C53.6045 75.5959 53.3848 75.5422 53.2578 75.5227V74.9514H57.7622V75.5227ZM61.4094 85.5935C60.9358 85.5935 60.4719 85.5227 60.0178 85.3811C59.5686 85.2443 59.2195 85.0979 58.9704 84.9416L58.7507 85.4397H58.1794L58.0842 82.7077H58.6189C58.6921 82.9275 58.8142 83.1765 58.9851 83.4548C59.156 83.7282 59.3513 83.9748 59.571 84.1945C59.8005 84.4143 60.0618 84.5998 60.3547 84.7512C60.6526 84.9025 60.97 84.9782 61.3069 84.9782C61.7512 84.9782 62.0808 84.8928 62.2956 84.7219C62.5154 84.5461 62.6252 84.2775 62.6252 83.9162C62.6252 83.7209 62.5764 83.5598 62.4787 83.4328C62.3811 83.3059 62.2468 83.196 62.0759 83.1032C61.8855 83.0056 61.6755 82.9226 61.446 82.8542C61.2214 82.7859 60.9431 82.7028 60.6111 82.6052C60.279 82.5075 59.9934 82.4099 59.7541 82.3122C59.5198 82.2097 59.2756 82.051 59.0217 81.8361C58.802 81.6457 58.6262 81.4162 58.4944 81.1477C58.3625 80.8791 58.2966 80.5593 58.2966 80.1882C58.2966 79.4997 58.5847 78.9431 59.1609 78.5183C59.7419 78.0935 60.5012 77.8811 61.4387 77.8811C61.883 77.8811 62.2908 77.9275 62.6619 78.0202C63.0378 78.1081 63.3528 78.2058 63.6067 78.3132L63.7605 77.8811H64.3171L64.4343 80.3786H63.9143C63.7434 79.8708 63.4504 79.4338 63.0354 79.0676C62.6203 78.6965 62.1736 78.5109 61.6951 78.5109C61.3191 78.5109 61.0237 78.5891 60.8088 78.7453C60.594 78.9016 60.4866 79.1189 60.4866 79.3972C60.4866 79.7683 60.6428 80.0368 60.9553 80.2028C61.2727 80.3689 61.7146 80.5251 62.281 80.6716C63.155 80.8962 63.7947 81.2038 64.1999 81.5944C64.6052 81.9802 64.8078 82.4734 64.8078 83.0739C64.8078 83.8747 64.4929 84.4948 63.863 84.9343C63.238 85.3737 62.4202 85.5935 61.4094 85.5935ZM74.9736 85.1906L71.3628 85.403L71.2529 85.3005V84.6267L71.2016 84.612C70.9624 84.8708 70.6377 85.0979 70.2275 85.2932C69.8222 85.4836 69.4121 85.5788 68.997 85.5788C68.0107 85.5788 67.1977 85.2126 66.5581 84.4802C65.9184 83.7478 65.5986 82.8005 65.5986 81.6384C65.5986 80.6081 65.9551 79.7243 66.6679 78.987C67.3857 78.2497 68.2524 77.8811 69.268 77.8811C69.6684 77.8811 70.0444 77.9275 70.396 78.0202C70.7475 78.1081 71.0283 78.2131 71.2383 78.3352V75.9401C71.2383 75.7595 71.2016 75.591 71.1284 75.4348C71.0552 75.2736 70.9575 75.1491 70.8354 75.0612C70.6841 74.9538 70.4936 74.8781 70.2641 74.8342C70.0395 74.7854 69.8125 74.7512 69.583 74.7317V74.197L73.5381 74.0066L73.6479 74.1237V83.7258C73.6479 83.9113 73.6772 84.0676 73.7358 84.1945C73.7993 84.3215 73.8994 84.4216 74.0361 84.4948C74.1386 84.5485 74.2876 84.5876 74.4829 84.612C74.6831 84.6364 74.8467 84.6511 74.9736 84.656V85.1906ZM71.2383 83.8869V79.7487C71.2041 79.6364 71.1553 79.5119 71.0918 79.3752C71.0332 79.2385 70.9502 79.1091 70.8428 78.987C70.7451 78.8845 70.6133 78.7942 70.4472 78.716C70.2861 78.6379 70.103 78.5988 69.8979 78.5988C69.4096 78.5988 69.0093 78.8747 68.6968 79.4265C68.3843 79.9782 68.228 80.757 68.228 81.7629C68.228 82.1584 68.2549 82.5149 68.3086 82.8322C68.3672 83.1447 68.4673 83.4304 68.6089 83.6892C68.7505 83.948 68.9311 84.1506 69.1509 84.2971C69.3755 84.4436 69.644 84.5168 69.9565 84.5168C70.2544 84.5168 70.501 84.4607 70.6963 84.3484C70.8916 84.2312 71.0722 84.0774 71.2383 83.8869ZM80.6936 85.0075C80.3811 85.1442 80.0466 85.2663 79.6902 85.3737C79.3337 85.486 78.8991 85.5422 78.3864 85.5422C77.6247 85.5422 77.0583 85.3567 76.6872 84.9856C76.321 84.6145 76.1379 84.0847 76.1379 83.3962V78.8991H74.8195V78.1081H76.1672V75.8889H78.5476V78.1081H80.5984V78.8991H78.5622V82.9128C78.5622 83.4841 78.6403 83.8894 78.7966 84.1286C78.9577 84.3679 79.2434 84.4875 79.6535 84.4875C79.7854 84.4875 79.9685 84.4777 80.2028 84.4582C80.4372 84.4387 80.6008 84.4167 80.6936 84.3923V85.0075Z" fill="white"/>
<path d="M404.311 77.9845C403.765 78.9445 403.491 80.2045 403.491 81.7645C403.491 83.3245 403.765 84.5845 404.311 85.5445C404.871 86.5045 405.738 86.9845 406.911 86.9845C408.085 86.9845 408.938 86.5111 409.471 85.5645C410.018 84.6045 410.291 83.3378 410.291 81.7645C410.291 80.1911 410.018 78.9311 409.471 77.9845C408.938 77.0245 408.085 76.5445 406.911 76.5445C405.738 76.5445 404.871 77.0245 404.311 77.9845ZM402.631 87.0445C401.685 85.7245 401.211 83.9645 401.211 81.7645C401.211 79.5645 401.685 77.8111 402.631 76.5045C403.578 75.1845 405.005 74.5245 406.911 74.5245C408.818 74.5245 410.245 75.1845 411.191 76.5045C412.138 77.8111 412.611 79.5645 412.611 81.7645C412.611 83.9645 412.138 85.7245 411.191 87.0445C410.245 88.3511 408.818 89.0045 406.911 89.0045C405.005 89.0045 403.578 88.3511 402.631 87.0445ZM415.121 88.5645C414.841 88.2711 414.701 87.9178 414.701 87.5045C414.701 87.0911 414.841 86.7445 415.121 86.4645C415.414 86.1711 415.767 86.0245 416.181 86.0245C416.594 86.0245 416.947 86.1711 417.241 86.4645C417.534 86.7445 417.681 87.0911 417.681 87.5045C417.681 87.9178 417.534 88.2711 417.241 88.5645C416.947 88.8578 416.594 89.0045 416.181 89.0045C415.767 89.0045 415.414 88.8578 415.121 88.5645ZM422.846 77.9845C422.299 78.9445 422.026 80.2045 422.026 81.7645C422.026 83.3245 422.299 84.5845 422.846 85.5445C423.406 86.5045 424.273 86.9845 425.446 86.9845C426.619 86.9845 427.473 86.5111 428.006 85.5645C428.553 84.6045 428.826 83.3378 428.826 81.7645C428.826 80.1911 428.553 78.9311 428.006 77.9845C427.473 77.0245 426.619 76.5445 425.446 76.5445C424.273 76.5445 423.406 77.0245 422.846 77.9845ZM421.166 87.0445C420.219 85.7245 419.746 83.9645 419.746 81.7645C419.746 79.5645 420.219 77.8111 421.166 76.5045C422.113 75.1845 423.539 74.5245 425.446 74.5245C427.353 74.5245 428.779 75.1845 429.726 76.5045C430.673 77.8111 431.146 79.5645 431.146 81.7645C431.146 83.9645 430.673 85.7245 429.726 87.0445C428.779 88.3511 427.353 89.0045 425.446 89.0045C423.539 89.0045 422.113 88.3511 421.166 87.0445ZM436.41 77.9845C435.863 78.9445 435.59 80.2045 435.59 81.7645C435.59 83.3245 435.863 84.5845 436.41 85.5445C436.97 86.5045 437.837 86.9845 439.01 86.9845C440.183 86.9845 441.037 86.5111 441.57 85.5645C442.117 84.6045 442.39 83.3378 442.39 81.7645C442.39 80.1911 442.117 78.9311 441.57 77.9845C441.037 77.0245 440.183 76.5445 439.01 76.5445C437.837 76.5445 436.97 77.0245 436.41 77.9845ZM434.73 87.0445C433.783 85.7245 433.31 83.9645 433.31 81.7645C433.31 79.5645 433.783 77.8111 434.73 76.5045C435.677 75.1845 437.103 74.5245 439.01 74.5245C440.917 74.5245 442.343 75.1845 443.29 76.5045C444.237 77.8111 444.71 79.5645 444.71 81.7645C444.71 83.9645 444.237 85.7245 443.29 87.0445C442.343 88.3511 440.917 89.0045 439.01 89.0045C437.103 89.0045 435.677 88.3511 434.73 87.0445Z" fill="#717A8C"/>
<rect x="8" y="152.5" width="456" height="99" rx="12" fill="#3A06AA"/>
<rect x="26" y="169.5" width="91.2222" height="34.6889" rx="8" fill="#252B36"/>
<path d="M57.2666 186.844C57.2666 192.643 52.5656 197.344 46.7666 197.344C40.9676 197.344 36.2666 192.643 36.2666 186.844C36.2666 181.045 40.9676 176.344 46.7666 176.344C52.5656 176.344 57.2666 181.045 57.2666 186.844Z" fill="#0C192B"/>
<path d="M46.2666 181.344L43.4473 185.208L42.2666 190.92L46.2666 193.344L50.2666 190.92L49.0618 185.184L46.2666 181.344ZM42.9172 190.656L43.8088 186.312L45.8329 192.432L42.9172 190.656ZM44.0979 185.328L46.2666 182.352L48.4353 185.328L46.2666 191.856L44.0979 185.328ZM46.6762 192.432L48.7003 186.312L49.5919 190.656L46.6762 192.432Z" fill="white"/>
<path d="M77.2524 184.103H76.6958C76.5542 183.707 76.3101 183.307 75.9634 182.902C75.6167 182.496 75.2725 182.257 74.9307 182.184C74.7842 182.15 74.5791 182.13 74.3154 182.125C74.0566 182.115 73.8418 182.111 73.6709 182.111H72.1621V186.124H73.2314C73.5 186.124 73.7441 186.092 73.9639 186.029C74.1836 185.966 74.3838 185.843 74.5645 185.663C74.6768 185.55 74.7891 185.353 74.9014 185.07C75.0186 184.786 75.0942 184.54 75.1284 184.33H75.6851V188.666H75.1284C75.0991 188.461 75.0234 188.204 74.9014 187.897C74.7842 187.584 74.6719 187.369 74.5645 187.252C74.4033 187.076 74.2129 186.957 73.9932 186.893C73.7734 186.825 73.5195 186.791 73.2314 186.791H72.1621V189.786C72.1621 190.099 72.1841 190.348 72.228 190.533C72.2769 190.714 72.3647 190.853 72.4917 190.951C72.6138 191.044 72.7798 191.105 72.9897 191.134C73.2046 191.163 73.4951 191.178 73.8613 191.178C74.0322 191.178 74.2373 191.175 74.4766 191.171C74.7158 191.166 74.9258 191.151 75.1064 191.127C75.3115 191.102 75.502 191.066 75.6777 191.017C75.8584 190.968 75.9927 190.897 76.0806 190.804C76.3149 190.565 76.5786 190.201 76.8716 189.713C77.1646 189.22 77.3574 188.851 77.4502 188.607H77.9849L77.7871 191.844H68.0386V191.273C68.1753 191.263 68.3608 191.244 68.5952 191.215C68.8296 191.185 68.9956 191.151 69.0933 191.112C69.2788 191.034 69.4033 190.936 69.4668 190.819C69.5303 190.697 69.562 190.543 69.562 190.358V183.026C69.562 182.85 69.5352 182.706 69.4814 182.594C69.4277 182.477 69.2983 182.372 69.0933 182.279C68.9663 182.22 68.7881 182.167 68.5586 182.118C68.3291 182.069 68.1558 182.037 68.0386 182.023V181.451H77.2524V184.103ZM89.8865 182.037C89.7253 182.052 89.5715 182.081 89.425 182.125C89.2786 182.169 89.1272 182.238 88.9709 182.33C88.761 182.452 88.5974 182.584 88.4802 182.726C88.3679 182.863 88.2556 183.053 88.1433 183.297C87.9919 183.634 87.7795 184.127 87.5061 184.777C87.2327 185.421 86.9202 186.156 86.5686 186.981C86.2561 187.723 85.9167 188.536 85.5505 189.42C85.1892 190.304 84.8425 191.151 84.5105 191.962H83.0383C82.3547 190.287 81.6589 188.585 80.9509 186.857C80.2429 185.128 79.7449 183.927 79.4568 183.253C79.3445 183.009 79.2346 182.826 79.1272 182.704C79.0246 182.577 78.8586 182.447 78.6291 182.316C78.4631 182.223 78.3166 182.159 78.1897 182.125C78.0627 182.086 77.8943 182.052 77.6843 182.023V181.451H83.3166V182.008C82.7893 182.071 82.4304 182.14 82.24 182.213C82.0544 182.281 81.9617 182.369 81.9617 182.477C81.9617 182.53 81.969 182.589 81.9836 182.653C82.0032 182.711 82.03 182.792 82.0642 182.894C82.2204 183.324 82.5037 184.027 82.9138 185.004C83.324 185.975 83.9319 187.46 84.7375 189.457C85.2307 188.241 85.6409 187.213 85.968 186.373C86.2952 185.533 86.5832 184.791 86.8323 184.147C86.9543 183.834 87.0544 183.544 87.1326 183.275C87.2156 183.002 87.2571 182.797 87.2571 182.66C87.2571 182.504 87.1448 182.374 86.9202 182.272C86.6955 182.164 86.2805 182.086 85.675 182.037V181.451H89.8865V182.037ZM102.579 191.844H96.9614V191.273C97.0835 191.263 97.2617 191.249 97.4961 191.229C97.7304 191.21 97.8916 191.18 97.9795 191.141C98.1601 191.068 98.2846 190.973 98.353 190.856C98.4214 190.734 98.4555 190.58 98.4555 190.394V186.813H94.0171V190.314C94.0171 190.48 94.0512 190.629 94.1196 190.76C94.1928 190.892 94.3149 190.995 94.4858 191.068C94.5786 191.107 94.7373 191.149 94.9619 191.193C95.1865 191.237 95.3696 191.263 95.5112 191.273V191.844H89.8935V191.273C90.0156 191.268 90.1938 191.254 90.4282 191.229C90.6675 191.2 90.8408 191.166 90.9482 191.127C91.124 191.063 91.2461 190.968 91.3144 190.841C91.3828 190.709 91.417 190.555 91.417 190.38V183.026C91.417 182.855 91.3852 182.711 91.3218 182.594C91.2632 182.477 91.1386 182.374 90.9482 182.286C90.8066 182.223 90.6211 182.167 90.3916 182.118C90.1621 182.064 89.9961 182.032 89.8935 182.023V181.451H95.5112V182.023C95.3598 182.032 95.1792 182.057 94.9692 182.096C94.7593 182.135 94.5981 182.172 94.4858 182.206C94.2954 182.269 94.1684 182.372 94.105 182.513C94.0464 182.65 94.0171 182.797 94.0171 182.953V186.058H98.4555V183.026C98.4555 182.855 98.4238 182.711 98.3603 182.594C98.2969 182.477 98.1699 182.374 97.9795 182.286C97.8525 182.228 97.6816 182.174 97.4668 182.125C97.2568 182.071 97.0884 182.037 96.9614 182.023V181.451H102.579V182.023C102.423 182.032 102.247 182.054 102.052 182.089C101.856 182.118 101.681 182.157 101.524 182.206C101.339 182.269 101.214 182.369 101.151 182.506C101.087 182.643 101.056 182.792 101.056 182.953V190.314C101.056 190.489 101.087 190.638 101.151 190.76C101.214 190.883 101.339 190.985 101.524 191.068C101.642 191.117 101.81 191.161 102.03 191.2C102.254 191.239 102.437 191.263 102.579 191.273V191.844Z" fill="white"/>
<path d="M404.31 182.984C403.764 183.944 403.49 185.204 403.49 186.764C403.49 188.324 403.764 189.584 404.31 190.544C404.87 191.504 405.737 191.984 406.91 191.984C408.084 191.984 408.937 191.511 409.47 190.564C410.017 189.604 410.29 188.338 410.29 186.764C410.29 185.191 410.017 183.931 409.47 182.984C408.937 182.024 408.084 181.544 406.91 181.544C405.737 181.544 404.87 182.024 404.31 182.984ZM402.63 192.044C401.684 190.724 401.21 188.964 401.21 186.764C401.21 184.564 401.684 182.811 402.63 181.504C403.577 180.184 405.004 179.524 406.91 179.524C408.817 179.524 410.244 180.184 411.19 181.504C412.137 182.811 412.61 184.564 412.61 186.764C412.61 188.964 412.137 190.724 411.19 192.044C410.244 193.351 408.817 194.004 406.91 194.004C405.004 194.004 403.577 193.351 402.63 192.044ZM415.12 193.564C414.84 193.271 414.7 192.918 414.7 192.504C414.7 192.091 414.84 191.744 415.12 191.464C415.413 191.171 415.766 191.024 416.18 191.024C416.593 191.024 416.946 191.171 417.24 191.464C417.533 191.744 417.68 192.091 417.68 192.504C417.68 192.918 417.533 193.271 417.24 193.564C416.946 193.858 416.593 194.004 416.18 194.004C415.766 194.004 415.413 193.858 415.12 193.564ZM422.845 182.984C422.298 183.944 422.025 185.204 422.025 186.764C422.025 188.324 422.298 189.584 422.845 190.544C423.405 191.504 424.272 191.984 425.445 191.984C426.618 191.984 427.472 191.511 428.005 190.564C428.552 189.604 428.825 188.338 428.825 186.764C428.825 185.191 428.552 183.931 428.005 182.984C427.472 182.024 426.618 181.544 425.445 181.544C424.272 181.544 423.405 182.024 422.845 182.984ZM421.165 192.044C420.218 190.724 419.745 188.964 419.745 186.764C419.745 184.564 420.218 182.811 421.165 181.504C422.112 180.184 423.538 179.524 425.445 179.524C427.352 179.524 428.778 180.184 429.725 181.504C430.672 182.811 431.145 184.564 431.145 186.764C431.145 188.964 430.672 190.724 429.725 192.044C428.778 193.351 427.352 194.004 425.445 194.004C423.538 194.004 422.112 193.351 421.165 192.044ZM436.409 182.984C435.862 183.944 435.589 185.204 435.589 186.764C435.589 188.324 435.862 189.584 436.409 190.544C436.969 191.504 437.836 191.984 439.009 191.984C440.182 191.984 441.036 191.511 441.569 190.564C442.116 189.604 442.389 188.338 442.389 186.764C442.389 185.191 442.116 183.931 441.569 182.984C441.036 182.024 440.182 181.544 439.009 181.544C437.836 181.544 436.969 182.024 436.409 182.984ZM434.729 192.044C433.782 190.724 433.309 188.964 433.309 186.764C433.309 184.564 433.782 182.811 434.729 181.504C435.676 180.184 437.102 179.524 439.009 179.524C440.916 179.524 442.342 180.184 443.289 181.504C444.236 182.811 444.709 184.564 444.709 186.764C444.709 188.964 444.236 190.724 443.289 192.044C442.342 193.351 440.916 194.004 439.009 194.004C437.102 194.004 435.676 193.351 434.729 192.044Z" fill="#717A8C"/>
<path d="M30.8052 230.189H27.1332V221.801H30.3972C30.9652 221.801 31.4532 221.869 31.8612 222.005C32.2772 222.141 32.5852 222.325 32.7852 222.557C33.1692 222.989 33.3612 223.477 33.3612 224.021C33.3612 224.677 33.1532 225.165 32.7372 225.485C32.5852 225.597 32.4812 225.669 32.4252 225.701C32.3692 225.725 32.2692 225.769 32.1252 225.833C32.6452 225.945 33.0572 226.181 33.3612 226.541C33.6732 226.893 33.8292 227.333 33.8292 227.861C33.8292 228.445 33.6292 228.961 33.2292 229.409C32.7572 229.929 31.9492 230.189 30.8052 230.189ZM28.5492 225.281H30.3492C31.3732 225.281 31.8852 224.933 31.8852 224.237C31.8852 223.837 31.7612 223.549 31.5132 223.373C31.2652 223.197 30.8812 223.109 30.3612 223.109H28.5492V225.281ZM28.5492 228.881H30.7692C31.2892 228.881 31.6852 228.801 31.9572 228.641C32.2372 228.473 32.3772 228.161 32.3772 227.705C32.3772 226.961 31.7812 226.589 30.5892 226.589H28.5492V228.881ZM40.3806 230.189H39.1566V229.337C38.6286 229.969 37.9206 230.285 37.0326 230.285C36.3686 230.285 35.8166 230.097 35.3766 229.721C34.9446 229.345 34.7286 228.845 34.7286 228.221C34.7286 227.589 34.9606 227.117 35.4246 226.805C35.8886 226.493 36.5166 226.337 37.3086 226.337H39.0486V226.097C39.0486 225.249 38.5766 224.825 37.6326 224.825C37.0406 224.825 36.4246 225.041 35.7846 225.473L35.1846 224.633C35.9606 224.017 36.8406 223.709 37.8246 223.709C38.5766 223.709 39.1886 223.901 39.6606 224.285C40.1406 224.661 40.3806 225.257 40.3806 226.073V230.189ZM39.0366 227.813V227.273H37.5246C36.5566 227.273 36.0726 227.577 36.0726 228.185C36.0726 228.497 36.1926 228.737 36.4326 228.905C36.6726 229.065 37.0046 229.145 37.4286 229.145C37.8606 229.145 38.2366 229.025 38.5566 228.785C38.8766 228.545 39.0366 228.221 39.0366 227.813ZM43.3902 230.189H42.0462V221.285H43.3902V230.189ZM50.3058 230.189H49.0818V229.337C48.5538 229.969 47.8458 230.285 46.9578 230.285C46.2938 230.285 45.7418 230.097 45.3018 229.721C44.8698 229.345 44.6538 228.845 44.6538 228.221C44.6538 227.589 44.8858 227.117 45.3498 226.805C45.8138 226.493 46.4418 226.337 47.2338 226.337H48.9738V226.097C48.9738 225.249 48.5018 224.825 47.5578 224.825C46.9658 224.825 46.3498 225.041 45.7098 225.473L45.1098 224.633C45.8858 224.017 46.7658 223.709 47.7498 223.709C48.5018 223.709 49.1138 223.901 49.5858 224.285C50.0658 224.661 50.3058 225.257 50.3058 226.073V230.189ZM48.9618 227.813V227.273H47.4498C46.4818 227.273 45.9978 227.577 45.9978 228.185C45.9978 228.497 46.1178 228.737 46.3578 228.905C46.5978 229.065 46.9298 229.145 47.3538 229.145C47.7858 229.145 48.1618 229.025 48.4818 228.785C48.8018 228.545 48.9618 228.221 48.9618 227.813ZM53.3155 226.733V230.189H51.9715V223.805H53.3155V224.969C53.5315 224.577 53.8275 224.269 54.2035 224.045C54.5875 223.821 54.9995 223.709 55.4395 223.709C56.1595 223.709 56.7395 223.929 57.1795 224.369C57.6275 224.809 57.8515 225.445 57.8515 226.277V230.189H56.5075V226.685C56.5075 225.509 56.0195 224.921 55.0435 224.921C54.5795 224.921 54.1755 225.077 53.8315 225.389C53.4875 225.693 53.3155 226.141 53.3155 226.733ZM62.3559 230.285C61.4679 230.285 60.7039 229.985 60.0639 229.385C59.4239 228.777 59.1039 227.985 59.1039 227.009C59.1039 226.033 59.4359 225.241 60.0999 224.633C60.7719 224.017 61.5879 223.709 62.5479 223.709C63.5079 223.709 64.3199 224.041 64.9839 224.705L64.1919 225.677C63.6399 225.197 63.0839 224.957 62.5239 224.957C61.9639 224.957 61.4759 225.145 61.0599 225.521C60.6519 225.889 60.4479 226.369 60.4479 226.961C60.4479 227.545 60.6519 228.041 61.0599 228.449C61.4679 228.857 61.9679 229.061 62.5599 229.061C63.1599 229.061 63.7239 228.789 64.2519 228.245L65.0439 229.109C64.2679 229.893 63.3719 230.285 62.3559 230.285ZM72.1727 227.585H67.1687C67.2007 228.049 67.4127 228.425 67.8047 228.713C68.1967 228.993 68.6447 229.133 69.1487 229.133C69.9487 229.133 70.5567 228.881 70.9727 228.377L71.7407 229.217C71.0527 229.929 70.1567 230.285 69.0527 230.285C68.1567 230.285 67.3927 229.989 66.7607 229.397C66.1367 228.797 65.8247 227.997 65.8247 226.997C65.8247 225.989 66.1447 225.189 66.7847 224.597C67.4247 224.005 68.1767 223.709 69.0407 223.709C69.9127 223.709 70.6527 223.973 71.2607 224.501C71.8687 225.021 72.1727 225.741 72.1727 226.661V227.585ZM67.1687 226.529H70.8287C70.8287 225.993 70.6607 225.581 70.3247 225.293C69.9887 225.005 69.5727 224.861 69.0767 224.861C68.5887 224.861 68.1487 225.013 67.7567 225.317C67.3647 225.613 67.1687 226.017 67.1687 226.529ZM73.5893 230.021C73.4213 229.845 73.3373 229.633 73.3373 229.385C73.3373 229.137 73.4213 228.929 73.5893 228.761C73.7653 228.585 73.9773 228.497 74.2253 228.497C74.4733 228.497 74.6853 228.585 74.8613 228.761C75.0373 228.929 75.1253 229.137 75.1253 229.385C75.1253 229.633 75.0373 229.845 74.8613 230.021C74.6853 230.197 74.4733 230.285 74.2253 230.285C73.9773 230.285 73.7653 230.197 73.5893 230.021ZM73.5893 227.081C73.4213 226.905 73.3373 226.693 73.3373 226.445C73.3373 226.197 73.4213 225.989 73.5893 225.821C73.7653 225.645 73.9773 225.557 74.2253 225.557C74.4733 225.557 74.6853 225.645 74.8613 225.821C75.0373 225.989 75.1253 226.197 75.1253 226.445C75.1253 226.693 75.0373 226.905 74.8613 227.081C74.6853 227.257 74.4733 227.345 74.2253 227.345C73.9773 227.345 73.7653 227.257 73.5893 227.081Z" fill="#717A8C"/>
<path d="M382.205 222.965C382.205 223.685 382.041 224.241 381.713 224.633C381.393 225.025 380.977 225.221 380.465 225.221C380.161 225.221 379.893 225.173 379.661 225.077C379.437 224.981 379.085 224.785 378.605 224.489C378.341 224.337 378.121 224.261 377.945 224.261C377.769 224.261 377.629 224.329 377.525 224.465C377.421 224.601 377.349 224.837 377.309 225.173H376.037C376.037 224.453 376.197 223.897 376.517 223.505C376.845 223.113 377.265 222.917 377.777 222.917C378.073 222.917 378.337 222.965 378.569 223.061C378.801 223.157 379.097 223.317 379.457 223.541C379.825 223.765 380.101 223.877 380.285 223.877C380.469 223.877 380.613 223.809 380.717 223.673C380.821 223.537 380.893 223.301 380.933 222.965H382.205ZM382.205 225.653C382.205 226.373 382.041 226.929 381.713 227.321C381.393 227.713 380.977 227.909 380.465 227.909C380.161 227.909 379.893 227.861 379.661 227.765C379.437 227.669 379.085 227.473 378.605 227.177C378.341 227.025 378.121 226.949 377.945 226.949C377.769 226.949 377.629 227.017 377.525 227.153C377.421 227.289 377.349 227.525 377.309 227.861H376.037C376.037 227.141 376.197 226.585 376.517 226.193C376.845 225.801 377.265 225.605 377.777 225.605C378.073 225.605 378.337 225.653 378.569 225.749C378.801 225.845 379.097 226.005 379.457 226.229C379.825 226.453 380.101 226.565 380.285 226.565C380.469 226.565 380.613 226.497 380.717 226.361C380.821 226.225 380.893 225.989 380.933 225.653H382.205ZM386.468 231.053V230.177C385.372 230.065 384.388 229.629 383.516 228.869L384.392 227.825C385.064 228.409 385.756 228.757 386.468 228.869V226.541C385.564 226.325 384.9 226.041 384.476 225.689C384.06 225.337 383.852 224.817 383.852 224.129C383.852 223.433 384.092 222.865 384.572 222.425C385.06 221.985 385.692 221.745 386.468 221.705V221.105H387.236V221.717C388.116 221.781 388.948 222.081 389.732 222.617L388.952 223.721C388.424 223.345 387.852 223.113 387.236 223.025V225.281H387.272C388.192 225.497 388.868 225.789 389.3 226.157C389.732 226.525 389.948 227.061 389.948 227.765C389.948 228.461 389.7 229.029 389.204 229.469C388.708 229.909 388.052 230.149 387.236 230.189V231.053H386.468ZM387.236 228.905C387.62 228.865 387.924 228.753 388.148 228.569C388.372 228.385 388.484 228.153 388.484 227.873C388.484 227.593 388.396 227.373 388.22 227.213C388.044 227.045 387.716 226.889 387.236 226.745V228.905ZM386.468 222.989C386.108 223.021 385.824 223.129 385.616 223.313C385.416 223.489 385.316 223.713 385.316 223.985C385.316 224.249 385.396 224.461 385.556 224.621C385.716 224.773 386.02 224.921 386.468 225.065V222.989ZM396.624 226.433C397.192 225.857 397.596 225.405 397.836 225.077C398.076 224.749 398.196 224.417 398.196 224.081C398.196 223.745 398.068 223.461 397.812 223.229C397.556 222.989 397.232 222.869 396.84 222.869C396.152 222.869 395.58 223.221 395.124 223.925L393.984 223.265C394.352 222.713 394.756 222.297 395.196 222.017C395.644 221.737 396.216 221.597 396.912 221.597C397.616 221.597 398.232 221.821 398.76 222.269C399.288 222.709 399.552 223.313 399.552 224.081C399.552 224.513 399.44 224.925 399.216 225.317C398.992 225.709 398.58 226.213 397.98 226.829L396.012 228.833H399.816V230.189H394.08V228.989L396.624 226.433ZM402.046 222.269C402.582 221.845 403.254 221.633 404.062 221.633C404.87 221.633 405.542 221.845 406.078 222.269C406.614 222.693 406.882 223.229 406.882 223.877C406.882 224.517 406.582 225.085 405.982 225.581C406.79 226.093 407.194 226.813 407.194 227.741C407.194 228.461 406.906 229.065 406.33 229.553C405.754 230.041 404.998 230.285 404.062 230.285C403.126 230.285 402.37 230.041 401.794 229.553C401.218 229.065 400.93 228.461 400.93 227.741C400.93 226.813 401.334 226.093 402.142 225.581C401.542 225.085 401.242 224.517 401.242 223.877C401.242 223.229 401.51 222.693 402.046 222.269ZM402.886 228.713C403.254 228.945 403.646 229.061 404.062 229.061C404.478 229.061 404.87 228.945 405.238 228.713C405.606 228.473 405.79 228.133 405.79 227.693C405.79 227.253 405.614 226.913 405.262 226.673C404.91 226.433 404.51 226.313 404.062 226.313C403.614 226.313 403.214 226.433 402.862 226.673C402.51 226.913 402.334 227.253 402.334 227.693C402.334 228.133 402.518 228.473 402.886 228.713ZM402.994 224.897C403.298 225.137 403.654 225.257 404.062 225.257C404.47 225.257 404.822 225.137 405.118 224.897C405.422 224.649 405.574 224.349 405.574 223.997C405.574 223.637 405.422 223.337 405.118 223.097C404.822 222.857 404.47 222.737 404.062 222.737C403.654 222.737 403.298 222.857 402.994 223.097C402.698 223.337 402.55 223.637 402.55 223.997C402.55 224.349 402.698 224.649 402.994 224.897ZM411.713 226.793V225.257H413.057V226.793H414.065V228.077H413.057V230.189H411.713V228.077H408.113V226.829L411.197 221.801H412.745L409.709 226.793H411.713ZM415.375 230.021C415.207 229.845 415.123 229.633 415.123 229.385C415.123 229.137 415.207 228.929 415.375 228.761C415.551 228.585 415.763 228.497 416.011 228.497C416.259 228.497 416.471 228.585 416.647 228.761C416.823 228.929 416.911 229.137 416.911 229.385C416.911 229.633 416.823 229.845 416.647 230.021C416.471 230.197 416.259 230.285 416.011 230.285C415.763 230.285 415.551 230.197 415.375 230.021ZM421.62 222.917C420.876 222.917 420.328 223.169 419.976 223.673C419.624 224.177 419.444 224.857 419.436 225.713C419.636 225.489 419.924 225.281 420.3 225.089C420.676 224.889 421.092 224.789 421.548 224.789C422.3 224.789 422.928 225.041 423.432 225.545C423.944 226.041 424.2 226.705 424.2 227.537C424.2 228.361 423.924 229.025 423.372 229.529C422.828 230.033 422.14 230.285 421.308 230.285C419.964 230.285 419.036 229.685 418.524 228.485C418.236 227.797 418.092 227.021 418.092 226.157C418.092 225.293 418.184 224.573 418.368 223.997C418.552 223.421 418.804 222.965 419.124 222.629C419.748 221.973 420.512 221.645 421.416 221.645C422.328 221.645 423.152 221.929 423.888 222.497L423.18 223.541C422.996 223.381 422.748 223.237 422.436 223.109C422.132 222.981 421.86 222.917 421.62 222.917ZM421.356 226.037C420.876 226.037 420.472 226.173 420.144 226.445C419.824 226.709 419.664 227.057 419.664 227.489C419.664 227.913 419.82 228.281 420.132 228.593C420.444 228.897 420.836 229.049 421.308 229.049C421.78 229.049 422.172 228.913 422.484 228.641C422.796 228.361 422.952 228.009 422.952 227.585C422.952 227.153 422.808 226.789 422.52 226.493C422.232 226.189 421.844 226.037 421.356 226.037ZM425.532 223.061V221.801H430.44V222.905L428.412 225.173C429.18 225.197 429.78 225.441 430.212 225.905C430.644 226.361 430.86 226.909 430.86 227.549C430.86 228.405 430.568 229.077 429.984 229.565C429.408 230.053 428.664 230.297 427.752 230.297C426.84 230.297 425.948 230.005 425.076 229.421L425.676 228.281C426.364 228.761 427.084 229.001 427.836 229.001C428.324 229.001 428.724 228.889 429.036 228.665C429.356 228.433 429.516 228.105 429.516 227.681C429.516 227.249 429.34 226.905 428.988 226.649C428.636 226.393 428.148 226.265 427.524 226.265C427.212 226.265 426.912 226.309 426.624 226.397V225.317L428.568 223.061H425.532ZM433.14 222.269C433.676 221.845 434.348 221.633 435.156 221.633C435.964 221.633 436.636 221.845 437.172 222.269C437.708 222.693 437.976 223.229 437.976 223.877C437.976 224.517 437.676 225.085 437.076 225.581C437.884 226.093 438.288 226.813 438.288 227.741C438.288 228.461 438 229.065 437.424 229.553C436.848 230.041 436.092 230.285 435.156 230.285C434.22 230.285 433.464 230.041 432.888 229.553C432.312 229.065 432.024 228.461 432.024 227.741C432.024 226.813 432.428 226.093 433.236 225.581C432.636 225.085 432.336 224.517 432.336 223.877C432.336 223.229 432.604 222.693 433.14 222.269ZM433.98 228.713C434.348 228.945 434.74 229.061 435.156 229.061C435.572 229.061 435.964 228.945 436.332 228.713C436.7 228.473 436.884 228.133 436.884 227.693C436.884 227.253 436.708 226.913 436.356 226.673C436.004 226.433 435.604 226.313 435.156 226.313C434.708 226.313 434.308 226.433 433.956 226.673C433.604 226.913 433.428 227.253 433.428 227.693C433.428 228.133 433.612 228.473 433.98 228.713ZM434.088 224.897C434.392 225.137 434.748 225.257 435.156 225.257C435.564 225.257 435.916 225.137 436.212 224.897C436.516 224.649 436.668 224.349 436.668 223.997C436.668 223.637 436.516 223.337 436.212 223.097C435.916 222.857 435.564 222.737 435.156 222.737C434.748 222.737 434.392 222.857 434.088 223.097C433.792 223.337 433.644 223.637 433.644 223.997C433.644 224.349 433.792 224.649 434.088 224.897ZM442.004 226.433C442.572 225.857 442.976 225.405 443.216 225.077C443.456 224.749 443.576 224.417 443.576 224.081C443.576 223.745 443.448 223.461 443.192 223.229C442.936 222.989 442.612 222.869 442.22 222.869C441.532 222.869 440.96 223.221 440.504 223.925L439.364 223.265C439.732 222.713 440.136 222.297 440.576 222.017C441.024 221.737 441.596 221.597 442.292 221.597C442.996 221.597 443.612 221.821 444.14 222.269C444.668 222.709 444.932 223.313 444.932 224.081C444.932 224.513 444.82 224.925 444.596 225.317C444.372 225.709 443.96 226.213 443.36 226.829L441.392 228.833H445.196V230.189H439.46V228.989L442.004 226.433Z" fill="#717A8C"/>
<rect x="211" y="174.5" width="50" height="50" rx="25" transform="rotate(-90 211 174.5)" fill="#3A06AA"/>
<rect x="211" y="174.5" width="50" height="50" rx="25" transform="rotate(-90 211 174.5)" stroke="#252B36" stroke-width="6"/>
<path d="M234.45 144.22L230.73 140.5L227.01 144.22" stroke="#717A8C" stroke-width="2" stroke-linecap="round" stroke-linejoin="round"/>
<path d="M230.729 158.5V140.5" stroke="#717A8C" stroke-width="2" stroke-linecap="round" stroke-linejoin="round"/>
<path d="M237.55 154.78L241.27 158.5L244.99 154.78" stroke="#717A8C" stroke-width="2" stroke-linecap="round" stroke-linejoin="round"/>
<path d="M241.27 140.5V158.5" stroke="#717A8C" stroke-width="2" stroke-linecap="round" stroke-linejoin="round"/>
<path d="M323.925 277.5H318.989V276.98C319.135 276.97 319.362 276.951 319.67 276.921C319.982 276.887 320.197 276.853 320.314 276.819C320.466 276.77 320.581 276.692 320.659 276.584C320.742 276.472 320.783 276.306 320.783 276.086V270.945H318.959V270.33H319.362C319.89 270.33 320.361 270.232 320.776 270.037C321.196 269.841 321.496 269.631 321.677 269.407H322.285C322.27 269.724 322.255 270.095 322.241 270.52C322.226 270.945 322.219 271.326 322.219 271.663V276.006C322.219 276.177 322.255 276.331 322.329 276.467C322.407 276.599 322.517 276.697 322.658 276.76C322.785 276.814 322.993 276.863 323.281 276.907C323.569 276.951 323.784 276.975 323.925 276.98V277.5ZM337.108 274.438L336.911 277.5H328.283V276.98C328.429 276.97 328.624 276.951 328.869 276.921C329.113 276.887 329.271 276.853 329.345 276.819C329.501 276.746 329.608 276.65 329.667 276.533C329.73 276.416 329.762 276.267 329.762 276.086V268.616C329.762 268.455 329.735 268.313 329.682 268.191C329.628 268.064 329.516 267.961 329.345 267.883C329.213 267.82 329.035 267.764 328.81 267.715C328.59 267.666 328.415 267.637 328.283 267.627V267.107H336.325V269.612H335.775C335.678 269.241 335.465 268.848 335.138 268.433C334.816 268.013 334.508 267.783 334.215 267.744C334.064 267.725 333.883 267.71 333.673 267.7C333.463 267.69 333.224 267.686 332.956 267.686H331.322V271.816H332.494C332.87 271.816 333.144 271.782 333.314 271.714C333.49 271.641 333.644 271.521 333.776 271.355C333.883 271.213 333.974 271.025 334.047 270.791C334.125 270.552 334.176 270.327 334.201 270.117H334.75V274.182H334.201C334.181 273.948 334.127 273.701 334.04 273.442C333.957 273.179 333.869 272.988 333.776 272.871C333.624 272.681 333.451 272.556 333.256 272.498C333.065 272.439 332.812 272.41 332.494 272.41H331.322V275.53C331.322 275.842 331.344 276.089 331.388 276.27C331.432 276.45 331.518 276.587 331.645 276.68C331.771 276.772 331.945 276.833 332.165 276.863C332.384 276.887 332.697 276.899 333.102 276.899C333.263 276.899 333.476 276.899 333.739 276.899C334.003 276.899 334.225 276.89 334.406 276.87C334.591 276.851 334.782 276.816 334.977 276.768C335.177 276.714 335.319 276.643 335.402 276.555C335.626 276.321 335.861 275.967 336.105 275.493C336.354 275.015 336.513 274.663 336.581 274.438H337.108ZM347.552 267.627C347.426 267.632 347.272 267.661 347.091 267.715C346.91 267.764 346.761 267.825 346.644 267.898C346.478 268 346.344 268.132 346.241 268.293C346.144 268.455 346.046 268.645 345.948 268.865C345.621 269.641 345.131 270.852 344.476 272.498C343.822 274.138 343.148 275.85 342.455 277.632H341.847C341.144 275.742 340.465 273.921 339.811 272.168C339.156 270.415 338.712 269.231 338.478 268.616C338.419 268.464 338.341 268.333 338.243 268.22C338.146 268.103 338.016 267.993 337.855 267.891C337.723 267.808 337.577 267.747 337.416 267.708C337.255 267.664 337.106 267.637 336.969 267.627V267.107H341.268V267.627C340.902 267.646 340.592 267.683 340.338 267.737C340.089 267.791 339.965 267.886 339.965 268.022C339.965 268.076 339.974 268.14 339.994 268.213C340.013 268.286 340.03 268.345 340.045 268.389C340.226 268.867 340.519 269.648 340.924 270.732C341.329 271.812 341.905 273.35 342.653 275.347C343.024 274.443 343.451 273.376 343.934 272.146C344.418 270.916 344.742 270.071 344.908 269.612C345.07 269.167 345.162 268.86 345.187 268.689C345.216 268.518 345.231 268.379 345.231 268.271C345.231 268.159 345.179 268.066 345.077 267.993C344.979 267.915 344.847 267.849 344.681 267.795C344.52 267.747 344.357 267.71 344.191 267.686C344.025 267.661 343.856 267.642 343.685 267.627V267.107H347.552V267.627ZM358.524 277.5H354.21V276.98C354.327 276.97 354.496 276.956 354.715 276.936C354.94 276.917 355.094 276.887 355.177 276.848C355.323 276.79 355.431 276.702 355.499 276.584C355.567 276.462 355.602 276.306 355.602 276.116V272.417H350.716V276.035C350.716 276.206 350.743 276.35 350.797 276.467C350.855 276.584 350.968 276.687 351.134 276.775C351.217 276.819 351.363 276.863 351.573 276.907C351.788 276.951 351.956 276.975 352.079 276.98V277.5H347.765V276.98C347.882 276.97 348.05 276.956 348.27 276.936C348.495 276.917 348.648 276.887 348.731 276.848C348.878 276.79 348.985 276.702 349.054 276.584C349.122 276.462 349.156 276.306 349.156 276.116V268.616C349.156 268.459 349.124 268.318 349.061 268.191C348.998 268.059 348.888 267.957 348.731 267.883C348.6 267.82 348.438 267.764 348.248 267.715C348.062 267.666 347.901 267.637 347.765 267.627V267.107H352.079V267.627C351.942 267.632 351.773 267.654 351.573 267.693C351.378 267.732 351.231 267.769 351.134 267.803C350.968 267.861 350.855 267.959 350.797 268.096C350.743 268.232 350.716 268.381 350.716 268.542V271.765H355.602V268.616C355.602 268.459 355.57 268.318 355.506 268.191C355.443 268.059 355.333 267.957 355.177 267.883C355.045 267.82 354.884 267.764 354.693 267.715C354.508 267.666 354.347 267.637 354.21 267.627V267.107H358.524V267.627C358.387 267.632 358.219 267.654 358.019 267.693C357.823 267.732 357.677 267.769 357.579 267.803C357.413 267.861 357.301 267.959 357.242 268.096C357.188 268.232 357.162 268.381 357.162 268.542V276.035C357.162 276.206 357.188 276.35 357.242 276.467C357.301 276.584 357.413 276.687 357.579 276.775C357.662 276.819 357.809 276.863 358.019 276.907C358.233 276.951 358.402 276.975 358.524 276.98V277.5ZM371.004 272.498H363.614V271.582H371.004V272.498ZM371.004 275.222H363.614V274.307H371.004V275.222ZM381.272 277.5H376.335V276.98C376.482 276.97 376.709 276.951 377.017 276.921C377.329 276.887 377.544 276.853 377.661 276.819C377.812 276.77 377.927 276.692 378.005 276.584C378.088 276.472 378.13 276.306 378.13 276.086V270.945H376.306V270.33H376.709C377.236 270.33 377.707 270.232 378.122 270.037C378.542 269.841 378.843 269.631 379.023 269.407H379.631C379.617 269.724 379.602 270.095 379.587 270.52C379.573 270.945 379.565 271.326 379.565 271.663V276.006C379.565 276.177 379.602 276.331 379.675 276.467C379.753 276.599 379.863 276.697 380.005 276.76C380.132 276.814 380.339 276.863 380.627 276.907C380.915 276.951 381.13 276.975 381.272 276.98V277.5ZM384.626 276.658C384.626 276.931 384.526 277.166 384.326 277.361C384.131 277.551 383.896 277.646 383.623 277.646C383.349 277.646 383.112 277.551 382.912 277.361C382.717 277.166 382.619 276.931 382.619 276.658C382.619 276.384 382.717 276.15 382.912 275.955C383.112 275.754 383.349 275.654 383.623 275.654C383.896 275.654 384.131 275.754 384.326 275.955C384.526 276.15 384.626 276.384 384.626 276.658ZM391.599 274.065C391.921 274.319 392.187 274.646 392.397 275.046C392.612 275.447 392.719 275.947 392.719 276.548C392.719 277.598 392.36 278.464 391.642 279.148C390.925 279.832 390.014 280.173 388.911 280.173C388.056 280.173 387.333 279.971 386.743 279.565C386.152 279.16 385.856 278.689 385.856 278.152C385.856 277.903 385.917 277.686 386.039 277.5C386.162 277.314 386.35 277.222 386.603 277.222C386.896 277.222 387.119 277.3 387.27 277.456C387.426 277.607 387.504 277.773 387.504 277.954C387.504 278.11 387.477 278.306 387.424 278.54C387.37 278.774 387.329 278.948 387.299 279.06C387.338 279.094 387.402 279.141 387.49 279.199C387.578 279.258 387.683 279.314 387.805 279.368C387.932 279.421 388.085 279.468 388.266 279.507C388.452 279.551 388.666 279.573 388.911 279.573C389.223 279.573 389.518 279.509 389.797 279.382C390.075 279.255 390.309 279.067 390.5 278.818C390.71 278.545 390.866 278.232 390.969 277.881C391.076 277.534 391.13 277.092 391.13 276.555C391.13 275.867 390.937 275.298 390.551 274.849C390.17 274.395 389.667 274.167 389.042 274.167C388.652 274.167 388.286 274.241 387.944 274.387C387.607 274.534 387.304 274.778 387.036 275.12L386.545 274.929L387.167 269.641H392.412V270.945H387.761L387.38 274.05C387.6 273.894 387.888 273.74 388.244 273.589C388.605 273.433 389.001 273.354 389.431 273.354C389.787 273.354 390.156 273.411 390.537 273.523C390.922 273.63 391.276 273.811 391.599 274.065ZM399.318 274.065C399.64 274.319 399.906 274.646 400.116 275.046C400.331 275.447 400.439 275.947 400.439 276.548C400.439 277.598 400.08 278.464 399.362 279.148C398.644 279.832 397.734 280.173 396.63 280.173C395.776 280.173 395.053 279.971 394.462 279.565C393.871 279.16 393.576 278.689 393.576 278.152C393.576 277.903 393.637 277.686 393.759 277.5C393.881 277.314 394.069 277.222 394.323 277.222C394.616 277.222 394.838 277.3 394.989 277.456C395.146 277.607 395.224 277.773 395.224 277.954C395.224 278.11 395.197 278.306 395.143 278.54C395.089 278.774 395.048 278.948 395.019 279.06C395.058 279.094 395.121 279.141 395.209 279.199C395.297 279.258 395.402 279.314 395.524 279.368C395.651 279.421 395.805 279.468 395.985 279.507C396.171 279.551 396.386 279.573 396.63 279.573C396.943 279.573 397.238 279.509 397.516 279.382C397.795 279.255 398.029 279.067 398.219 278.818C398.429 278.545 398.586 278.232 398.688 277.881C398.796 277.534 398.849 277.092 398.849 276.555C398.849 275.867 398.656 275.298 398.271 274.849C397.89 274.395 397.387 274.167 396.762 274.167C396.371 274.167 396.005 274.241 395.663 274.387C395.326 274.534 395.024 274.778 394.755 275.12L394.264 274.929L394.887 269.641H400.131V270.945H395.48L395.099 274.05C395.319 273.894 395.607 273.74 395.964 273.589C396.325 273.433 396.72 273.354 397.15 273.354C397.506 273.354 397.875 273.411 398.256 273.523C398.642 273.63 398.996 273.811 399.318 274.065ZM409.132 277.368L406.781 277.529L406.671 277.427V276.511H406.627C406.51 276.633 406.378 276.765 406.232 276.907C406.085 277.043 405.917 277.168 405.726 277.28C405.507 277.412 405.294 277.512 405.089 277.581C404.884 277.649 404.594 277.683 404.218 277.683C403.578 277.683 403.09 277.476 402.753 277.061C402.421 276.641 402.255 276.033 402.255 275.237V271.78C402.255 271.604 402.221 271.458 402.152 271.34C402.089 271.218 401.994 271.113 401.867 271.025C401.779 270.967 401.669 270.925 401.537 270.901C401.405 270.872 401.266 270.852 401.119 270.842V270.366L403.529 270.19L403.639 270.293V275.31C403.639 275.833 403.756 276.226 403.991 276.489C404.225 276.753 404.506 276.885 404.833 276.885C405.101 276.885 405.341 276.843 405.551 276.76C405.761 276.677 405.936 276.58 406.078 276.467C406.21 276.365 406.325 276.257 406.422 276.145C406.525 276.028 406.603 275.92 406.657 275.823V271.729C406.657 271.567 406.622 271.426 406.554 271.304C406.486 271.177 406.39 271.069 406.268 270.981C406.181 270.923 406.049 270.889 405.873 270.879C405.702 270.864 405.509 270.852 405.294 270.842V270.366L407.916 270.19L408.026 270.293V276.028C408.026 276.194 408.06 276.335 408.129 276.453C408.197 276.57 408.292 276.67 408.414 276.753C408.502 276.807 408.607 276.843 408.729 276.863C408.851 276.877 408.986 276.887 409.132 276.892V277.368ZM414.581 273.962C414.781 274.138 414.935 274.341 415.043 274.57C415.15 274.8 415.204 275.081 415.204 275.413C415.204 276.082 414.952 276.628 414.449 277.053C413.951 277.478 413.304 277.69 412.508 277.69C412.088 277.69 411.7 277.615 411.344 277.463C410.992 277.312 410.741 277.173 410.589 277.046L410.443 277.522H409.894L409.82 275.01H410.326C410.365 275.2 410.448 275.422 410.575 275.676C410.702 275.93 410.856 276.16 411.036 276.365C411.227 276.58 411.454 276.76 411.717 276.907C411.986 277.053 412.286 277.126 412.618 277.126C413.087 277.126 413.448 277.021 413.702 276.812C413.956 276.597 414.083 276.292 414.083 275.896C414.083 275.691 414.042 275.515 413.959 275.369C413.88 275.217 413.763 275.085 413.607 274.973C413.446 274.861 413.248 274.761 413.014 274.673C412.779 274.58 412.518 274.49 412.23 274.402C412.001 274.333 411.744 274.241 411.461 274.124C411.183 274.001 410.943 273.86 410.743 273.699C410.528 273.528 410.353 273.318 410.216 273.069C410.079 272.82 410.011 272.527 410.011 272.19C410.011 271.599 410.231 271.099 410.67 270.688C411.109 270.278 411.698 270.073 412.435 270.073C412.718 270.073 413.006 270.11 413.299 270.183C413.597 270.256 413.839 270.344 414.025 270.447L414.193 270.066H414.72L414.83 272.388H414.325C414.222 271.87 414 271.45 413.658 271.128C413.321 270.801 412.909 270.637 412.421 270.637C412.02 270.637 411.705 270.737 411.476 270.938C411.246 271.138 411.131 271.379 411.131 271.663C411.131 271.882 411.168 272.065 411.241 272.212C411.319 272.358 411.434 272.483 411.586 272.585C411.732 272.683 411.915 272.776 412.135 272.864C412.359 272.947 412.635 273.042 412.963 273.149C413.285 273.252 413.588 273.372 413.871 273.508C414.159 273.645 414.396 273.796 414.581 273.962ZM424.007 277.368L421.488 277.529L421.378 277.427V276.753L421.319 276.738C421.065 277.021 420.75 277.253 420.374 277.434C420.003 277.615 419.62 277.705 419.224 277.705C418.814 277.705 418.416 277.615 418.031 277.434C417.65 277.249 417.318 276.99 417.035 276.658C416.746 276.321 416.517 275.916 416.346 275.442C416.18 274.968 416.097 274.446 416.097 273.875C416.097 273.352 416.187 272.856 416.368 272.388C416.549 271.919 416.798 271.509 417.115 271.157C417.413 270.83 417.777 270.569 418.206 270.374C418.641 270.178 419.083 270.081 419.532 270.081C419.869 270.081 420.199 270.125 420.521 270.212C420.848 270.295 421.129 270.403 421.363 270.535V268.022C421.363 267.817 421.329 267.632 421.261 267.466C421.192 267.295 421.097 267.166 420.975 267.078C420.838 266.985 420.653 266.919 420.418 266.88C420.189 266.836 419.94 266.804 419.671 266.785V266.331L422.623 266.162L422.733 266.272V276.013C422.733 276.184 422.764 276.331 422.828 276.453C422.896 276.57 422.994 276.67 423.121 276.753C423.214 276.812 423.348 276.848 423.524 276.863C423.7 276.877 423.861 276.887 424.007 276.892V277.368ZM421.363 276.101V271.875C421.324 271.748 421.261 271.611 421.173 271.465C421.085 271.318 420.975 271.184 420.843 271.062C420.702 270.94 420.535 270.84 420.345 270.762C420.155 270.679 419.932 270.637 419.679 270.637C419.386 270.637 419.115 270.713 418.866 270.864C418.621 271.016 418.404 271.233 418.214 271.516C418.033 271.79 417.889 272.139 417.782 272.563C417.679 272.983 417.628 273.45 417.628 273.962C417.628 274.373 417.667 274.746 417.745 275.083C417.823 275.415 417.955 275.725 418.14 276.013C418.311 276.287 418.529 276.506 418.792 276.672C419.061 276.838 419.378 276.921 419.744 276.921C420.135 276.921 420.457 276.836 420.711 276.665C420.97 276.494 421.187 276.306 421.363 276.101ZM428.965 277.185C428.648 277.317 428.348 277.427 428.065 277.515C427.781 277.607 427.435 277.654 427.024 277.654C426.419 277.654 425.992 277.502 425.743 277.2C425.499 276.892 425.377 276.46 425.377 275.903V271.011H424.073V270.308H425.406V268.059H426.739V270.308H428.812V271.011H426.753V275.046C426.753 275.349 426.763 275.603 426.783 275.808C426.807 276.008 426.861 276.184 426.944 276.335C427.022 276.477 427.139 276.584 427.295 276.658C427.452 276.731 427.662 276.768 427.925 276.768C428.047 276.768 428.226 276.758 428.46 276.738C428.699 276.714 428.868 276.685 428.965 276.65V277.185Z" fill="#717A8C"/>
<rect x="8" y="293.5" width="456" height="56" rx="12" fill="#8859EC"/>
<path d="M214.818 329.871C213.972 329.871 213.181 329.767 212.445 329.559C211.716 329.35 211.098 329.103 210.59 328.816L209.916 329.5H209.086L208.959 324.49H209.799C209.988 324.965 210.229 325.467 210.521 325.994C210.814 326.521 211.153 326.993 211.537 327.41C211.934 327.846 212.377 328.201 212.865 328.475C213.36 328.748 213.936 328.885 214.594 328.885C215.479 328.885 216.156 328.67 216.625 328.24C217.1 327.804 217.338 327.257 217.338 326.6C217.338 326.059 217.136 325.607 216.732 325.242C216.335 324.871 215.717 324.552 214.877 324.285C214.33 324.109 213.826 323.947 213.363 323.797C212.908 323.647 212.478 323.494 212.074 323.338C211.143 322.967 210.45 322.436 209.994 321.746C209.545 321.056 209.32 320.285 209.32 319.432C209.32 318.891 209.438 318.374 209.672 317.879C209.906 317.378 210.248 316.928 210.697 316.531C211.127 316.16 211.677 315.857 212.348 315.623C213.018 315.389 213.747 315.271 214.535 315.271C215.303 315.271 216.023 315.379 216.693 315.594C217.364 315.802 217.891 316.014 218.275 316.229L218.871 315.643H219.721L219.799 320.369H218.959C218.764 319.861 218.533 319.344 218.266 318.816C218.005 318.283 217.729 317.84 217.436 317.488C217.117 317.111 216.749 316.811 216.332 316.59C215.915 316.362 215.427 316.248 214.867 316.248C214.164 316.248 213.588 316.447 213.139 316.844C212.696 317.241 212.475 317.732 212.475 318.318C212.475 318.872 212.667 319.324 213.051 319.676C213.441 320.027 214.047 320.337 214.867 320.604C215.349 320.766 215.84 320.929 216.342 321.092C216.843 321.255 217.289 321.411 217.68 321.561C218.624 321.925 219.34 322.43 219.828 323.074C220.323 323.712 220.57 324.507 220.57 325.457C220.57 326.056 220.43 326.635 220.15 327.195C219.87 327.755 219.493 328.221 219.018 328.592C218.497 329.002 217.895 329.318 217.211 329.539C216.527 329.76 215.73 329.871 214.818 329.871ZM238.725 320.525C238.425 320.571 238.148 320.672 237.895 320.828C237.641 320.978 237.426 321.261 237.25 321.678C236.794 322.791 236.43 323.689 236.156 324.373C235.883 325.057 235.499 326.043 235.004 327.332C234.9 327.599 234.773 327.967 234.623 328.436C234.48 328.904 234.366 329.288 234.281 329.588H232.377L229.916 322.947L227.611 329.588H225.727C225.069 327.811 224.551 326.434 224.174 325.457C223.796 324.474 223.292 323.178 222.66 321.57C222.543 321.264 222.341 321.023 222.055 320.848C221.775 320.672 221.485 320.564 221.186 320.525V319.812H227.182V320.525C226.96 320.545 226.697 320.597 226.391 320.682C226.085 320.766 225.932 320.88 225.932 321.023C225.932 321.089 225.938 321.147 225.951 321.199C225.971 321.245 226 321.333 226.039 321.463C226.215 321.971 226.456 322.628 226.762 323.436C227.068 324.236 227.426 325.171 227.836 326.238L230.004 319.812H231.938L234.408 326.453C234.786 325.451 235.076 324.663 235.277 324.09C235.486 323.51 235.746 322.765 236.059 321.854C236.104 321.717 236.13 321.596 236.137 321.492C236.15 321.382 236.153 321.31 236.146 321.277C236.146 321.16 236.088 321.056 235.971 320.965C235.854 320.867 235.714 320.789 235.551 320.73C235.388 320.672 235.229 320.626 235.072 320.594C234.923 320.561 234.796 320.538 234.691 320.525V319.812H238.725V320.525ZM250.316 329.295C250.03 329.419 249.691 329.533 249.301 329.637C248.91 329.741 248.497 329.793 248.061 329.793C247.26 329.793 246.671 329.676 246.293 329.441C245.915 329.201 245.658 328.859 245.521 328.416H245.463C245.242 328.637 245.027 328.826 244.818 328.982C244.617 329.139 244.398 329.272 244.164 329.383C243.858 329.526 243.562 329.63 243.275 329.695C242.995 329.767 242.602 329.803 242.094 329.803C241.339 329.803 240.694 329.581 240.16 329.139C239.626 328.689 239.359 328.097 239.359 327.361C239.359 326.938 239.418 326.58 239.535 326.287C239.652 325.988 239.818 325.724 240.033 325.496C240.229 325.288 240.453 325.115 240.707 324.979C240.967 324.842 241.251 324.715 241.557 324.598C242.143 324.383 242.846 324.161 243.666 323.934C244.486 323.699 245.085 323.491 245.463 323.309V322.371C245.463 322.208 245.45 321.993 245.424 321.727C245.398 321.46 245.342 321.235 245.258 321.053C245.167 320.844 245.023 320.669 244.828 320.525C244.633 320.382 244.376 320.311 244.057 320.311C243.77 320.311 243.529 320.353 243.334 320.438C243.145 320.516 242.992 320.597 242.875 320.682C242.895 320.812 242.95 321.01 243.041 321.277C243.132 321.544 243.178 321.801 243.178 322.049C243.178 322.16 243.148 322.299 243.09 322.469C243.031 322.632 242.947 322.762 242.836 322.859C242.686 322.99 242.517 323.09 242.328 323.162C242.146 323.234 241.863 323.27 241.479 323.27C240.932 323.27 240.518 323.139 240.238 322.879C239.958 322.612 239.818 322.267 239.818 321.844C239.818 321.479 239.962 321.154 240.248 320.867C240.541 320.574 240.896 320.333 241.312 320.145C241.723 319.949 242.195 319.799 242.729 319.695C243.262 319.585 243.757 319.529 244.213 319.529C244.844 319.529 245.424 319.568 245.951 319.646C246.479 319.718 246.954 319.871 247.377 320.105C247.781 320.333 248.1 320.665 248.334 321.102C248.575 321.531 248.695 322.094 248.695 322.791C248.695 323.527 248.679 324.399 248.646 325.408C248.62 326.417 248.607 327.081 248.607 327.4C248.607 327.693 248.65 327.924 248.734 328.094C248.826 328.263 248.962 328.39 249.145 328.475C249.255 328.527 249.428 328.559 249.662 328.572C249.903 328.579 250.121 328.582 250.316 328.582V329.295ZM245.463 324.207C245.098 324.331 244.737 324.474 244.379 324.637C244.021 324.793 243.728 324.959 243.5 325.135C243.259 325.317 243.07 325.551 242.934 325.838C242.797 326.118 242.729 326.45 242.729 326.834C242.729 327.342 242.842 327.71 243.07 327.938C243.305 328.165 243.591 328.279 243.93 328.279C244.288 328.279 244.581 328.208 244.809 328.064C245.043 327.915 245.248 327.732 245.424 327.518L245.463 324.207ZM262.963 324.744C262.963 326.118 262.504 327.296 261.586 328.279C260.668 329.262 259.506 329.754 258.1 329.754C257.475 329.754 256.967 329.689 256.576 329.559C256.186 329.435 255.863 329.282 255.609 329.1H255.531V331.844C255.531 332.072 255.58 332.27 255.678 332.439C255.782 332.609 255.925 332.732 256.107 332.811C256.283 332.882 256.531 332.947 256.85 333.006C257.175 333.064 257.445 333.1 257.66 333.113V333.836H250.609V333.113C250.772 333.1 250.977 333.074 251.225 333.035C251.472 333.003 251.658 332.967 251.781 332.928C251.99 332.856 252.13 332.732 252.201 332.557C252.279 332.387 252.318 332.192 252.318 331.971V321.98C252.299 321.766 252.247 321.577 252.162 321.414C252.084 321.251 251.957 321.108 251.781 320.984C251.651 320.9 251.479 320.831 251.264 320.779C251.049 320.721 250.837 320.682 250.629 320.662V319.949L255.385 319.695L255.531 319.822V320.906L255.609 320.926C256.039 320.49 256.514 320.151 257.035 319.91C257.562 319.669 258.083 319.549 258.598 319.549C259.945 319.549 261.01 320.027 261.791 320.984C262.572 321.935 262.963 323.188 262.963 324.744ZM259.457 324.783C259.457 324.295 259.421 323.829 259.35 323.387C259.278 322.938 259.151 322.537 258.969 322.186C258.793 321.834 258.559 321.554 258.266 321.346C257.979 321.137 257.628 321.033 257.211 321.033C256.788 321.033 256.449 321.108 256.195 321.258C255.941 321.401 255.72 321.59 255.531 321.824V327.361C255.57 327.492 255.645 327.661 255.756 327.869C255.867 328.071 255.977 328.234 256.088 328.357C256.251 328.533 256.436 328.663 256.645 328.748C256.853 328.833 257.081 328.875 257.328 328.875C257.973 328.875 258.487 328.53 258.871 327.84C259.262 327.143 259.457 326.124 259.457 324.783Z" fill="white"/>
</svg>
